<svg width="1600" height="1200" viewBox="0 0 1600 1200" fill="none" xmlns="http://www.w3.org/2000/svg">
  <rect width="1600" height="1200" fill="#EBE8E1"/>
  <g opacity="0.92" filter="url(#blurA)">
    <path d="M-75 792C84 674 209 656 361 739C460 793 520 777 602 694C719 577 825 564 961 656C1038 708 1091 695 1172 617C1321 472 1464 475 1708 621V1200H-75V792Z" fill="#929292"/>
  </g>
  <g opacity="0.8" filter="url(#blurB)">
    <path d="M-88 909C130 765 305 758 490 870C619 949 722 931 841 831C994 703 1144 694 1295 805C1398 881 1512 885 1678 754V1200H-88V909Z" fill="#707070"/>
  </g>
  <g opacity="0.7" filter="url(#blurC)">
    <path d="M-84 1040C137 930 289 925 458 1008C576 1066 680 1052 801 973C954 874 1111 867 1268 954C1374 1013 1499 1022 1694 934V1200H-84V1040Z" fill="#515151"/>
  </g>
  <g opacity="0.3">
    <path d="M1136 161C1087 212 1049 292 1061 367C1072 436 1118 497 1121 564C1125 657 1027 730 1008 809" stroke="#2A2A2A" stroke-width="4" stroke-linecap="round"/>
    <path d="M1170 225C1213 270 1255 342 1242 411C1227 490 1160 560 1169 633C1176 695 1224 738 1234 785" stroke="#555555" stroke-width="3" stroke-linecap="round"/>
  </g>
  <g opacity="0.24">
    <circle cx="1308" cy="180" r="108" fill="url(#mist)"/>
  </g>
  <g opacity="0.35">
    <path d="M97 936C187 916 264 925 356 963" stroke="#2F2F2F" stroke-width="8" stroke-linecap="round"/>
    <path d="M151 969C256 949 329 966 404 1013" stroke="#2F2F2F" stroke-width="5" stroke-linecap="round"/>
  </g>
  <defs>
    <filter id="blurA" x="-155" y="480" width="1943" height="800" filterUnits="userSpaceOnUse" color-interpolation-filters="sRGB">
      <feGaussianBlur stdDeviation="18"/>
    </filter>
    <filter id="blurB" x="-188" y="618" width="1976" height="682" filterUnits="userSpaceOnUse" color-interpolation-filters="sRGB">
      <feGaussianBlur stdDeviation="26"/>
    </filter>
    <filter id="blurC" x="-164" y="793" width="1938" height="487" filterUnits="userSpaceOnUse" color-interpolation-filters="sRGB">
      <feGaussianBlur stdDeviation="24"/>
    </filter>
    <radialGradient id="mist" cx="0" cy="0" r="1" gradientUnits="userSpaceOnUse" gradientTransform="translate(1308 180) rotate(90) scale(108)">
      <stop stop-color="white"/>
      <stop offset="1" stop-color="white" stop-opacity="0"/>
    </radialGradient>
  </defs>
</svg>
